<svg id="Layer_1" data-name="Layer 1" xmlns="http://www.w3.org/2000/svg" viewBox="0 0 234 153"><defs><style>.cls-1{fill:#00658D;}</style></defs><path class="cls-1" d="M529.32,447.92l-32-47.31L549,324H490l-50.71,75.86,51.15,76.31Z" transform="translate(-315 -324)"/><path class="cls-1" d="M492.7,477H549l-18.56-27.42Z" transform="translate(-315 -324)"/><path class="cls-1" d="M364.87,372.45A40.14,40.14,0,0,1,413,368.58l27.14-27.13a76.47,76.47,0,0,0-102,4.27Z" transform="translate(-315 -324)"/><path class="cls-1" d="M441.65,342.76l-27,27a40.16,40.16,0,1,1-51.29,4.09l-26.68-26.68a76.5,76.5,0,1,0,104.93-4.37Z" transform="translate(-315 -324)"/></svg>